<svg width="165" height="52" viewBox="0 0 165 52" fill="none" xmlns="http://www.w3.org/2000/svg">
<path d="M45.0116 17.3914C44.2726 16.5584 43.5656 15.7709 42.8688 14.975C41.7555 13.7042 40.6732 12.4051 39.5231 11.1679C39.188 10.8075 38.6979 10.4856 38.2251 10.3745C36.7857 10.0371 35.31 9.85459 33.8694 9.52137C33.2249 9.37249 32.9932 9.62831 32.7122 10.1163C29.5037 15.6763 26.2756 21.2251 23.051 26.7763C21.3425 29.7179 19.6435 32.6654 17.9113 35.594C17.5923 36.1334 17.5697 36.5174 18.0283 36.9894C18.7293 37.712 19.419 38.4588 20.0095 39.2705C20.673 40.1827 21.5463 40.5372 22.6215 40.7203C25.2449 41.167 27.8528 41.7028 30.6098 42.2304C30.4542 42.5648 30.3568 42.8248 30.2195 43.0617C28.6346 45.8018 27.0306 48.5313 25.4653 51.2827C25.1576 51.8232 24.7768 52.0023 24.1768 51.9975C21.3794 51.9757 18.582 51.9727 15.7845 51.9999C15.1685 52.0058 14.8073 51.7848 14.5061 51.2608C11.9844 46.8759 9.4501 42.4975 6.8915 38.1332C6.60813 37.6494 6.65031 37.3114 6.91764 36.8524C13.9091 24.8331 20.8893 12.808 27.8552 0.774582C28.1748 0.222184 28.5318 -0.00232002 29.1871 0.00122478C34.2164 0.0284016 39.2462 0.0284016 44.2755 4.3184e-05C44.9017 -0.00350162 45.245 0.210959 45.5403 0.727909C46.9339 3.16791 48.3698 5.58428 49.7498 8.03138C49.9209 8.33505 50.0135 8.86677 49.862 9.13735C48.3751 11.796 46.8288 14.4227 45.2967 17.0564C45.2421 17.1504 45.1547 17.2248 45.0116 17.3914Z" fill="#1867C6"/>
<path d="M25.1644 0.0208537C18.3939 11.6838 11.7411 23.1436 4.9789 34.793C4.4686 33.9168 4.07474 33.2386 3.67969 32.5615C2.53257 30.5953 1.40029 28.6209 0.227623 26.6701C-0.0682172 26.1773 -0.0783162 25.7921 0.212772 25.2923C4.98959 17.0908 9.74739 8.87931 14.5266 0.679596C14.6846 0.408418 15.0149 0.0521661 15.2698 0.0486213C18.4777 0.00549294 21.6868 0.0202629 25.1644 0.0202629V0.0208537Z" fill="#1867C6"/>
<path d="M28.2643 51.8888C28.689 51.1456 29.0318 50.5395 29.3805 49.9363C30.6245 47.7875 31.8738 45.6429 33.1118 43.4912C33.3643 43.0517 33.6048 42.7693 34.2215 42.8916C38.7197 43.7819 43.2262 44.6321 47.7292 45.5005C47.9876 45.5502 48.2365 45.6512 48.6048 45.7634C48.4177 46.1315 48.2656 46.4641 48.0838 46.7802C47.2159 48.2921 46.3711 49.8199 45.442 51.2939C45.2341 51.6236 44.7202 51.9544 44.3442 51.9574C39.2609 52.0011 34.1769 51.9875 29.0936 51.9834C28.8898 51.9834 28.6866 51.9385 28.2637 51.8888H28.2643Z" fill="#1867C6"/>
<path d="M42.3665 27.5762C44.0993 28.8464 45.7247 30.0315 47.3435 31.225C49.396 32.7386 51.43 34.2776 53.5021 35.7629C54.0575 36.1611 54.1193 36.4754 53.7623 37.0479C52.949 38.3524 52.1934 39.6929 51.4365 41.031C51.187 41.4724 50.9274 41.5787 50.4344 41.3637C46.3603 39.5877 42.275 37.8372 38.1956 36.0731C38.0126 35.9939 37.8552 35.8562 37.6318 35.7109C39.2085 33.0021 40.7637 30.3299 42.3665 27.5762Z" fill="#1867C6"/>
<path d="M51.7815 11.5283C52.811 13.2889 53.7799 14.9384 54.7417 16.5927C56.405 19.4545 58.0518 22.3258 59.7353 25.1764C60.0555 25.7187 60.109 26.1453 59.7621 26.7066C58.8638 28.1593 58.031 29.6511 57.0924 31.2634C56.1918 30.2472 55.3702 29.3338 54.5629 28.4081C52.2074 25.7075 49.8585 23.0017 47.5049 20.2993C47.209 19.9596 46.931 19.6737 47.2447 19.1461C48.6645 16.7581 50.0445 14.3464 51.4417 11.9454C51.4993 11.8462 51.5878 11.7646 51.7821 11.5295L51.7815 11.5283Z" fill="#1867C6"/>
<g clip-path="url(#clip0_566_678)">
<path d="M91.1338 5.33339C91.2 5.30453 91.2682 5.28038 91.3378 5.26112C93.8451 5.02601 93.8399 5.02688 94.9129 7.27606C95.455 8.40805 96.004 9.54005 96.6187 10.8192C97.3424 9.2614 98.0764 7.86818 98.6366 6.40704C99.005 5.4492 99.5315 5.05649 100.525 5.18797C100.988 5.2498 101.466 5.19842 102.021 5.19842V17.4866H99.5816V10.1243L99.3785 10.0817C98.8018 11.3007 98.194 12.5111 97.6631 13.7528C97.4184 14.3258 97.0717 14.4677 96.4925 14.4755C95.9132 14.4834 95.6504 14.277 95.4282 13.7659C94.8887 12.525 94.2852 11.3138 93.4993 10.1322V17.511H91.1338V5.33339Z" fill="black"/>
<path d="M145.277 17.5267H142.904V5.21846C143.816 5.21846 144.691 5.16273 145.553 5.25068C145.829 5.27941 146.153 5.63817 146.31 5.92639C147.337 7.8203 148.324 9.73598 149.326 11.6429C149.481 11.9711 149.707 12.26 149.988 12.4885V5.29857H152.346V17.5763C151.603 17.5763 150.86 17.6408 150.138 17.5432C149.859 17.5058 149.545 17.1488 149.388 16.8588C148.233 14.722 147.114 12.5668 145.979 10.4187C145.808 10.0613 145.569 9.74164 145.275 9.47823L145.277 17.5267Z" fill="black"/>
<path d="M126.844 13.1939H123.986V10.9551H129.433C129.433 12.7271 129.443 14.4669 129.416 16.2067C129.416 16.3852 129.224 16.6421 129.055 16.7292C127.101 17.6635 125.06 18.1015 122.912 17.5999C119.675 16.8502 117.917 13.9697 118.448 10.35C119.033 6.36186 122.365 4.28509 126.676 5.22291C126.775 5.24661 126.874 5.27567 126.97 5.30998C129.964 6.2983 129.458 5.7741 129.353 8.96718C128.888 8.78345 128.436 8.69202 128.086 8.45082C126.85 7.60183 125.506 7.24307 124.022 7.39459C123.718 7.42211 123.419 7.48944 123.132 7.59486C121.49 8.21833 120.717 10.006 121.045 12.3632C121.292 14.1317 122.506 15.3194 124.213 15.4526C124.519 15.4734 124.826 15.4772 125.132 15.4639C126.97 15.3995 127.131 15.2018 126.844 13.1939Z" fill="black"/>
<path d="M109.234 32.6075C108.098 32.6075 107.246 32.6563 106.403 32.5822C106.086 32.5544 105.726 32.3036 105.502 32.0502C104.574 31.0001 103.647 29.9421 102.807 28.8223C102.288 28.1353 101.716 27.9803 100.844 28.238V32.5396H98.3896V20.119C100.378 20.2688 102.418 20.1652 104.32 20.6284C106.922 21.2623 107.58 24.6165 105.665 26.5975C105.411 26.8587 105.124 27.093 104.801 27.3873C105.554 28.2781 106.276 29.1375 107.003 29.9935C107.694 30.8076 108.391 31.6183 109.234 32.6075ZM100.863 25.8591C102.008 25.6963 103.256 26.1978 103.873 24.9605C104.115 24.4763 104.119 23.5559 103.814 23.1719C103.064 22.2306 101.92 22.6721 100.863 22.639V25.8591Z" fill="black"/>
<path d="M82.1387 47.7092V35.4958H90.449V37.7311H84.6563V39.8105H90.4421V42.2059H84.6728V45.345H90.4369V47.7092H82.1387Z" fill="black"/>
<path d="M116.428 37.7624H110.65V39.8383H116.424V42.199H110.631V45.3781H116.424V47.69H108.124V35.4767H116.431L116.428 37.7624Z" fill="black"/>
<path d="M164.966 42.2041H159.196V45.3432H164.962V47.7135H156.684V35.4923H164.973V37.7406H159.181V39.8069H164.964L164.966 42.2041Z" fill="black"/>
<path d="M156.664 32.5386V20.3253H164.983V22.6328H159.207V24.6791H165V27.0389H159.222V30.2659H165V32.5395L156.664 32.5386Z" fill="black"/>
<path d="M156.637 17.491V5.28027H164.954V7.57473H159.141V9.66456H164.934V12.0243H159.15V15.2183H164.936V17.491H156.637Z" fill="black"/>
<path d="M121.165 32.5578H112.882V20.3297H121.165V22.6068H115.393V24.6966H121.186V27.052H115.361V30.2521H121.165V32.5578Z" fill="black"/>
<path d="M131.7 35.4575H134.1C134.1 36.3753 134.1 37.2556 134.1 38.1351C134.107 39.9524 134.075 41.7705 134.139 43.5861C134.188 44.9854 135.003 45.6881 136.386 45.6925C137.795 45.6925 138.592 45.0307 138.634 43.6026C138.71 41.2725 138.679 38.9397 138.692 36.6087C138.692 36.2403 138.692 35.8729 138.692 35.4723H141.05C141.05 38.5331 141.223 41.5511 140.993 44.537C140.82 46.8288 138.851 48.0487 136.198 47.9991C133.741 47.953 131.895 46.6224 131.747 44.3585C131.555 41.431 131.7 38.4808 131.7 35.4575Z" fill="black"/>
<path d="M133.239 29.4683C132.002 29.4683 130.878 29.4265 129.76 29.4962C129.458 29.5153 129.141 29.8366 128.896 30.0866C128.745 30.2424 128.723 30.5219 128.645 30.7509C127.909 32.8556 127.909 32.8556 125.498 32.4994C125.585 32.2051 125.648 31.9186 125.747 31.6443C127.012 28.1378 128.295 24.6382 129.536 21.1229C129.76 20.4881 130.028 20.2051 130.753 20.2243C132.544 20.2722 132.546 20.2243 133.153 21.9057C134.316 25.1223 135.479 28.3398 136.642 31.5581C136.754 31.8699 136.852 32.186 136.987 32.61C136.202 32.61 135.518 32.6614 134.853 32.583C134.593 32.5534 134.268 32.2765 134.161 32.0292C133.814 31.2098 133.553 30.3608 133.239 29.4683ZM132.412 27.1173C131.995 25.9539 131.621 24.909 131.165 23.6342C130.711 24.9334 130.346 25.9783 129.949 27.1173H132.412Z" fill="black"/>
<path d="M116.605 17.4309C116.459 17.518 116.432 17.5476 116.401 17.5502C114.067 17.7331 114.026 17.747 113.308 15.4856C113.049 14.6601 112.676 14.3388 111.81 14.4111C110.831 14.493 109.84 14.4303 108.802 14.4303C108.538 15.1591 108.223 15.847 108.045 16.5697C107.848 17.376 107.448 17.7139 106.615 17.592C106.155 17.5241 105.677 17.5798 105.077 17.5798C105.705 15.8383 106.288 14.2396 106.862 12.6374C107.661 10.4169 108.478 8.20344 109.245 5.97254C109.448 5.38565 109.744 5.12964 110.355 5.20801C110.66 5.24981 110.968 5.24981 111.273 5.20801C112.008 5.09917 112.341 5.41787 112.585 6.11796C113.816 9.63671 115.099 13.1354 116.36 16.6429C116.451 16.8954 116.52 17.1557 116.605 17.4309ZM112.087 12.0853C111.69 10.9725 111.323 9.938 110.85 8.60921L109.614 12.0853H112.087Z" fill="black"/>
<path d="M105.017 35.4166L100.796 41.5215L105.007 47.7649C103.97 47.7649 103.105 47.8075 102.256 47.7361C102.033 47.7179 101.8 47.3713 101.637 47.1266C100.851 45.9685 100.089 44.7947 99.2431 43.5147C98.4744 44.6528 97.7145 45.6646 97.0816 46.7513C96.6087 47.562 96.0251 47.9085 95.1052 47.784C94.6513 47.7222 94.1818 47.7736 93.4893 47.7736C94.7567 45.945 95.8401 44.2531 97.06 42.6692C97.6989 41.8411 97.6652 41.2759 97.0557 40.4618C95.8798 38.8848 94.8276 37.2138 93.6112 35.4114C94.5977 35.4114 95.374 35.3652 96.1401 35.4357C96.4133 35.461 96.7392 35.7126 96.9087 35.9582C97.7102 37.1067 98.4649 38.2884 99.3217 39.5858C100.036 38.5296 100.771 37.583 101.344 36.5529C101.863 35.6212 102.526 35.2416 103.559 35.4027C103.96 35.4688 104.372 35.4166 105.017 35.4166Z" fill="black"/>
<path d="M92.592 24.0992C91.9825 23.8049 91.5761 23.6639 91.2355 23.434C89.4199 22.1905 87.3587 22.0251 86.0999 23.0508C84.841 24.0766 84.3949 26.6306 85.1696 28.5018C85.8232 30.0779 87.3172 30.8616 89.1173 30.3966C89.9473 30.1815 90.7167 29.6843 91.4784 29.2515C92.2151 28.8327 92.5341 28.9633 92.592 29.8045C92.7148 31.6139 92.6638 31.8743 90.8914 32.3062C89.5348 32.6371 88.0383 32.8408 86.6817 32.6284C83.5986 32.146 81.8919 29.2585 82.2412 25.6893C82.8257 19.7036 88.5172 19.0941 92.2228 21.0916C92.407 21.1909 92.56 21.5096 92.5756 21.736C92.6214 22.4152 92.592 23.0996 92.592 24.0992Z" fill="black"/>
<path d="M128.929 39.0877C128.514 38.9135 128.099 38.8143 127.767 38.5887C125.94 37.3488 124.006 37.1476 122.716 38.1046C121.454 39.0398 120.931 41.3917 121.556 43.3178C122.346 45.749 125.131 46.4012 127.562 44.7354C127.954 44.4672 128.388 44.2609 129.07 43.8743C129.07 44.9052 129.112 45.6158 129.047 46.3202C129.025 46.5579 128.782 46.8627 128.56 46.9794C126.777 47.9102 124.895 48.2524 122.92 47.7631C120.887 47.2554 119.523 45.9449 119.069 43.923C118.79 42.6796 118.698 41.3107 118.896 40.0568C119.506 36.2255 122.984 34.3464 127.004 35.5219C129.129 36.1384 129.369 36.5538 128.929 39.0877Z" fill="black"/>
<path d="M146.239 22.6094V32.536H143.764V22.686H139.773V20.3175H150.216V22.6094H146.239Z" fill="black"/>
<path d="M150.284 47.7213H147.745V37.7755H143.804V35.4967H154.205V37.7189H150.284V47.7213Z" fill="black"/>
<path d="M133.408 15.4787L134.735 15.3742V7.4842L133.408 7.36664V5.28552H138.756V7.37535L137.412 7.45111V15.3481L138.769 15.49V17.5032H133.409L133.408 15.4787Z" fill="black"/>
<path d="M85.9269 7.47551V15.3463L87.2938 15.4865V17.4893H82V15.5013L83.3306 15.362V7.4877L82.0069 7.36579V5.28467H87.274V7.35621L85.9269 7.47551Z" fill="black"/>
</g>
<defs>
<clipPath id="clip0_566_678">
<rect width="83" height="43" fill="white" transform="translate(82 5)"/>
</clipPath>
</defs>
</svg>
