<svg width="66" height="57" viewBox="0 0 66 57" fill="none" xmlns="http://www.w3.org/2000/svg">
<g clip-path="url(#clip0_566_1545)">
<path d="M49.5136 19.0639C48.7006 18.1508 47.923 17.2875 47.1565 16.4152C45.9319 15.0222 44.7413 13.5981 43.4762 12.2419C43.1076 11.8469 42.5685 11.494 42.0484 11.3722C40.465 11.0024 38.8418 10.8023 37.2572 10.437C36.5481 10.2738 36.2933 10.5543 35.9842 11.0892C32.4548 17.1839 28.9039 23.2663 25.3569 29.3513C23.4775 32.5758 21.6086 35.8068 19.7031 39.017C19.3522 39.6083 19.3274 40.0292 19.8318 40.5467C20.6029 41.3387 21.3616 42.1573 22.0112 43.0471C22.7411 44.0471 23.7017 44.4356 24.8844 44.6364C27.7701 45.126 30.6389 45.7134 33.6716 46.2917C33.5004 46.6582 33.3932 46.9432 33.2423 47.2029C31.4988 50.2065 29.7345 53.1985 28.0126 56.2145C27.6741 56.8071 27.2552 57.0033 26.5952 56.9981C23.518 56.9741 20.4409 56.9709 17.3637 57.0007C16.6861 57.0072 16.2888 56.765 15.9574 56.1905C13.1835 51.3839 10.3958 46.5844 7.58133 41.8005C7.26963 41.2701 7.31602 40.8996 7.61008 40.3964C15.3007 27.2213 22.9789 14.0397 30.6415 0.849073C30.993 0.243551 31.3858 -0.00254313 32.1065 0.00134257C37.6388 0.0311329 43.1717 0.0311329 48.7039 4.7337e-05C49.3927 -0.00383836 49.7704 0.231247 50.0951 0.797911C51.6282 3.47257 53.2076 6.12132 54.7256 8.80375C54.9138 9.13663 55.0157 9.71948 54.8491 10.0161C53.2135 12.9304 51.5125 15.8097 49.8272 18.6967C49.7671 18.7997 49.671 18.8813 49.5136 19.0639Z" fill="white"/>
<path d="M27.6814 0.0228543C20.2338 12.8075 12.9157 25.3693 5.47729 38.139C4.91596 37.1786 4.48272 36.4351 4.04816 35.6929C2.78632 33.5377 1.54082 31.3733 0.250875 29.2349C-0.0745509 28.6948 -0.0856598 28.2725 0.234538 27.7247C5.48905 18.7344 10.7227 9.73322 15.9798 0.744947C16.1536 0.447691 16.5169 0.057178 16.7973 0.0532923C20.326 0.00601622 23.856 0.0222066 27.6814 0.0222066V0.0228543Z" fill="white"/>
<path d="M31.091 56.8793C31.5582 56.0646 31.9353 55.4001 32.3188 54.7389C33.6872 52.3835 35.0614 50.0327 36.4233 47.6741C36.701 47.1922 36.9656 46.8827 37.6439 47.0167C42.592 47.9927 47.5492 48.9246 52.5024 49.8766C52.7867 49.931 53.0605 50.0418 53.4656 50.1648C53.2598 50.5683 53.0925 50.9329 52.8925 51.2794C51.9378 52.9366 51.0086 54.6113 49.9866 56.2272C49.7579 56.5885 49.1926 56.9512 48.779 56.9544C43.1873 57.0023 37.5949 56.9875 32.0032 56.9829C31.7791 56.9829 31.5556 56.9337 31.0903 56.8793H31.091Z" fill="white"/>
<path d="M46.6036 30.2285C48.5098 31.6209 50.2977 32.92 52.0784 34.2282C54.3361 35.8874 56.5735 37.5744 58.8528 39.2025C59.4638 39.639 59.5318 39.9836 59.1391 40.6111C58.2445 42.041 57.4132 43.5105 56.5807 44.9773C56.3063 45.4611 56.0207 45.5777 55.4783 45.342C50.9969 43.3952 46.503 41.4763 42.0156 39.5425C41.8144 39.4558 41.6412 39.3049 41.3955 39.1456C43.1298 36.1762 44.8406 33.2471 46.6036 30.2285Z" fill="white"/>
<path d="M56.9604 12.6367C58.0929 14.5666 59.1587 16.3748 60.2167 18.1881C62.0464 21.3251 63.8578 24.4726 65.7097 27.5973C66.0619 28.1918 66.1207 28.6594 65.7391 29.2746C64.7511 30.8671 63.8349 32.5024 62.8024 34.2697C61.8118 33.1558 60.908 32.1546 60.02 31.1398C57.429 28.1795 54.8452 25.2134 52.2561 22.2512C51.9307 21.8789 51.6249 21.5654 51.9699 20.9871C53.5317 18.3694 55.0497 15.7259 56.5867 13.0939C56.65 12.9851 56.7474 12.8958 56.9611 12.638L56.9604 12.6367Z" fill="white"/>
</g>
<defs>
<clipPath id="clip0_566_1545">
<rect width="66" height="57" fill="white"/>
</clipPath>
</defs>
</svg>
